<?xml version="1.0" standalone="no"?><!DOCTYPE svg PUBLIC "-//W3C//DTD SVG 1.1//EN" "http://www.w3.org/Graphics/SVG/1.1/DTD/svg11.dtd"><svg t="1605712615137" class="icon" viewBox="0 0 1024 1024" version="1.1" xmlns="http://www.w3.org/2000/svg" p-id="1084" xmlns:xlink="http://www.w3.org/1999/xlink" width="200" height="200"><defs><style type="text/css"></style></defs><path d="M563.53961182 520.52813721L835.32763672 248.7401123c13.71917724-13.71917724 13.71917724-36.33728028 0-50.05645751l-1.4831543-1.4831543c-13.71917724-13.71917724-36.33728028-13.71917724-50.05645752 0L512 469.35931396l-271.7880249-272.15881347c-13.71917724-13.71917724-36.33728028-13.71917724-50.05645752 0l-1.4831543 1.4831543c-14.08996583 13.71917724-14.08996583 36.33728028 0 50.05645751l271.7880249 271.78802491L188.67236328 792.31616211c-13.71917724 13.71917724-13.71917724 36.33728028 0 50.05645752l1.4831543 1.4831543c13.71917724 13.71917724 36.33728028 13.71917724 50.05645752 0L512 572.06774903l271.7880249 271.7880249c13.71917724 13.71917724 36.33728028 13.71917724 50.05645752 0l1.4831543-1.4831543c13.71917724-13.71917724 13.71917724-36.33728028 0-50.05645752L563.53961182 520.52813721z" p-id="1085"></path></svg>