<?xml version="1.0" standalone="no"?><!DOCTYPE svg PUBLIC "-//W3C//DTD SVG 1.1//EN" "http://www.w3.org/Graphics/SVG/1.1/DTD/svg11.dtd"><svg t="1605712619178" class="icon" viewBox="0 0 1024 1024" version="1.1" xmlns="http://www.w3.org/2000/svg" p-id="1213" xmlns:xlink="http://www.w3.org/1999/xlink" width="200" height="200"><defs><style type="text/css"></style></defs><path d="M472.05424727 629.61804902c4.43841711 4.43841711 11.09604216 6.65762505 15.53445926 6.65762505s11.09604216-2.21920794 15.53445926-6.65762505l93.20675555-93.20675555 93.20675556 93.20675555c4.43841711 4.43841711 11.09604216 6.65762505 15.53445926 6.65762505s11.09604216-2.21920794 15.53445927-6.65762505c8.87683421-8.87683421 8.87683421-22.19208431 0-31.06891851l-93.20675556-93.20675556 93.20675556-93.20675556c8.87683421-8.87683421 8.87683421-22.19208431-1e-8-31.06891851s-22.19208431-8.87683421-31.06891852 0l-93.20675556 93.20675555-93.20675555-93.20675555c-8.87683421-8.87683421-22.19208431-8.87683421-31.06891852 0s-8.87683421 22.19208431 0 31.06891851l93.20675556 93.20675556-93.20675556 93.20675556c-6.65762505 8.87683421-6.65762505 22.19208431 0 31.06891851z" p-id="1214"></path><path d="M352.21699031 796.05868377h554.80211622c24.41129347 0 44.38416983-19.97287636 44.38416983-44.38416983V256.79102681c0-24.41129347-19.97287636-44.38416983-44.38416983-44.38416984h-554.80211622c-11.09604216 0-22.19208431 0-290.71630883 279.62026667-8.87683421 8.87683421-8.87683421 22.19208431 0 31.06891852 270.74343246 272.96264162 279.62026667 272.96264162 290.71630883 272.96264161z m6.65762505-539.26765696h548.14449117v494.88348713H358.87461536c-26.63050141-19.97287636-142.02934128-135.37171623-248.55134816-246.33213899 106.52200687-110.96042276 224.14005468-228.57847178 248.55134816-248.55134814z" p-id="1215"></path></svg>