<?xml version="1.0" standalone="no"?><!DOCTYPE svg PUBLIC "-//W3C//DTD SVG 1.1//EN" "http://www.w3.org/Graphics/SVG/1.1/DTD/svg11.dtd"><svg t="1606226799705" class="icon" viewBox="0 0 1024 1024" version="1.1" xmlns="http://www.w3.org/2000/svg" p-id="1143" xmlns:xlink="http://www.w3.org/1999/xlink" width="200" height="200"><defs><style type="text/css"></style></defs><path d="M566.5523808 902.0952384l-104.83809493 0q-7.92380907 0-13.71428587-5.48571413t-5.79047573-14.01904747l0-201.1428576-175.5428576 0q-7.92380907 0-13.71428587-5.48571413t-5.79047573-14.01904747l0-62.78095253q0-7.92380907 5.79047573-13.71428587t13.71428587-5.79047573l175.5428576 0 0-51.80952427-175.5428576 0q-7.92380907 0-13.71428587-5.48571413t-5.79047573-14.01904747l0-63.39047573q0-7.92380907 5.79047573-13.71428587t13.71428587-5.79047573l130.43809493 0-195.6571424-352.3047616q-4.87619093-9.7523808 0-19.5047616 6.0952384-9.7523808 17.06666667-9.7523808l118.2476192 0q11.58095253 0 17.67619093 10.97142826l131.0476192 259.0476192q11.58095253 23.16190507 34.13333333 76.19047574 6.0952384-14.62857173 18.59047574-41.4476192t16.76190506-37.18095254l116.41904747-256q4.87619093-11.58095253 17.67619093-11.58095253l116.41904747 0q10.36190507 0 16.4571424 9.7523808 5.48571413 8.53333333 0.60952427 18.8952384l-190.78095254 352.91428587 131.0476192 0q7.92380907 0 13.71428587 5.79047573t5.79047573 13.71428587l0 63.39047573q0 8.53333333-5.79047573 14.01904747t-13.71428587 5.48571413l-176.76190506 0 0 51.80952427 176.76190506 0q7.92380907 0 13.71428587 5.79047573t5.79047573 13.71428587l0 62.78095253q0 8.53333333-5.79047573 14.01904747t-13.71428587 5.48571413l-176.76190506 0 0 201.1428576q0 7.92380907-5.79047574 13.71428587t-13.71428586 5.79047573z" p-id="1144"></path></svg>