<?xml version="1.0" standalone="no"?><!DOCTYPE svg PUBLIC "-//W3C//DTD SVG 1.1//EN" "http://www.w3.org/Graphics/SVG/1.1/DTD/svg11.dtd"><svg t="1608479996746" class="icon" viewBox="0 0 1025 1024" version="1.1" xmlns="http://www.w3.org/2000/svg" p-id="1370" xmlns:xlink="http://www.w3.org/1999/xlink" width="200.1953125" height="200"><defs><style type="text/css"></style></defs><path d="M87.3125 199.8434375C87.3125 164.1003125 116.286875 135.125 152.0290625 135.125h547.936875c35.7421875 0 64.7175 28.9753125 64.7175 64.7184375l-0.0009375 69.0328125H842.375c38.1075 0 69 30.8925 69 69V847.0625c0 38.1075-30.8925 69-69 69H156.3125C118.205 916.0625 87.3125 885.17 87.3125 847.0625V199.8434375z m824.0625 276.133125H536.0028125c-16.505625 0-29.9165625 13.246875-30.18375 29.6878125l-0.00375 0.4996875v172.6115625c0 16.505625 13.246875 29.9165625 29.68875 30.18375l0.49875 0.00375H911.375l-0.0009375-34.516875H569.9590625c-15.1715625 0-27.470625-9.515625-27.470625-21.253125V531.745625c0-11.7375 12.2990625-21.253125 27.470625-21.253125h341.415l0.0009375-34.5159375zM699.9659375 191.2146875H152.0290625a8.6296875 8.6296875 0 0 0-8.6184375 8.1984375l-0.009375 0.43125v66.8746875h565.194375v-66.875625a8.6296875 8.6296875 0 0 0-8.1984375-8.6184375l-0.43125-0.0103125z" p-id="1371"></path></svg>