<?xml version="1.0" standalone="no"?><!DOCTYPE svg PUBLIC "-//W3C//DTD SVG 1.1//EN" "http://www.w3.org/Graphics/SVG/1.1/DTD/svg11.dtd"><svg t="1605020435714" class="icon" viewBox="0 0 1024 1024" version="1.1" xmlns="http://www.w3.org/2000/svg" p-id="804" xmlns:xlink="http://www.w3.org/1999/xlink" width="200" height="200"><defs><style type="text/css"></style></defs><path d="M408.79999971 755c15.00000029 0 27.9-5.10000028 39.30000029-15.59999971L754.70000029 432.19999972c10.8-10.8 20.09999971-25.80000029 27.9-43.80000031 7.80000029-18.60000029 11.40000029-35.1 11.40000029-50.10000029L793.99999971 159.49999971c0-15.00000029-5.69999971-27.9-16.49999971-38.7-10.8-10.8-23.6999997-16.49999971-38.7-16.49999971l-178.19999999 0c-15.00000029 0-32.10000029 3.6-50.1000003 11.40000029-18.60000029 7.80000029-33.00000029 16.49999971-43.80000029 27.9l-307.19999971 307.19999971c-10.8 10.8-15.59999972 23.69999972-15.59999971 38.7 0 15.00000029 5.10000028 27.9 15.59999971 39.30000029l210.6 210.6C380.89999969 749.30000029 393.80000029 755 408.79999971 755L408.79999971 755 408.79999971 755zM617.3 280.40000029c-10.8-10.8-15.90000029-23.6999997-15.90000029-38.7 0-15.00000029 5.10000028-27.9 15.90000029-38.7 10.8-10.8 23.6999997-15.90000029 38.7-15.90000029 15.00000029 0 27.9 5.10000028 38.7 15.90000029 10.8 10.8 15.90000029 23.6999997 15.90000029 38.7 0 15.00000029-5.10000028 27.9-15.90000029 38.7C683.90000001 291.20000029 671.00000029 296 656 296.00000001 640.7 296.9 628.1 291.20000028 617.3 280.40000029L617.3 280.40000029 617.3 280.40000029zM448.39999971 904.10000029L754.70000029 596.89999971c10.8-10.8 20.09999971-25.80000029 27.9-43.80000029C790.39999971 534.5 793.99999971 518.00000029 793.99999971 503l0-96.59999971c0 15.00000029-3.6 32.10000029-11.40000029 50.1000003-7.80000029 18.60000029-16.49999971 33.00000029-27.9 43.80000029l-306.29999971 307.19999971c-11.40000029 10.8-24.3 15.90000029-39.30000029 15.90000028s-27.9-5.10000028-38.7-15.90000028l-201.89999971-201.3000003c-8.70000029 8.70000029-15.00000029 16.49999971-19.19999972 22.79999971-4.20000029 6.3-5.69999971 15.00000029-5.6999997 25.2 0 15.00000029 5.10000028 27.9 15.9000003 39.30000029l211.20000029 210.6c10.8 10.8 23.69999972 15.59999972 38.7 15.59999971S436.69999971 914.59999971 448.39999971 904.10000029L448.39999971 904.10000029 448.39999971 904.10000029zM448.39999971 904.10000029" p-id="805"></path></svg>